<svg width="40" height="34" viewBox="0 0 46 34" fill="none" xmlns="http://www.w3.org/2000/svg">
<path d="M45.36 5.75C45.44 6.04 45.339 6.36 45.17 6.61L39.78 14.63C39.58 14.94 39.16 15.11 38.809 15.11C38.709 15.11 38.429 15.09 38.32 15.06L34 14V33C34 33.58 33.59 34 33 34H12C11.41 34 11 33.58 11 33V14L7.12003 15.07C6.67003 15.21 6.28003 15.03 6.03003 14.64L0.680027 6.64C0.510027 6.38 0.460027 6.09 0.540027 5.8C0.610027 5.5 0.820027 5.3 1.09003 5.16L12 0H17C17.59 0 18 0.41 18 1C18 3.06 20.89 4.52 22.95 4.52C25.01 4.52 28 3.07 28 1C28 0.42 28.41 0 29 0H34L44.8 5.06C45.08 5.2 45.28 5.45 45.36 5.75Z" fill="white"/>
</svg>
