<svg width="32" height="36" viewBox="0 0 34 36" fill="none" xmlns="http://www.w3.org/2000/svg">
<path d="M13.8075 0.635004C13.9729 0.717008 14.1181 0.834641 14.2327 0.979449C14.3472 1.12426 14.4283 1.29264 14.47 1.4725C14.515 1.67 15.75 6.955 15.75 10.5C15.75 12.875 14.645 14.9925 12.925 16.365C12.3 16.865 12 17.41 12 17.865V19.08C12 19.1383 12.0033 19.1933 12.01 19.245C12.095 19.865 12.4025 22.1675 12.69 24.555C12.9725 26.8975 13.25 29.4525 13.25 30.5C13.25 31.8261 12.7232 33.0979 11.7855 34.0355C10.8479 34.9732 9.57608 35.5 8.25 35.5C6.92392 35.5 5.65215 34.9732 4.71447 34.0355C3.77678 33.0979 3.25 31.8261 3.25 30.5C3.25 29.45 3.5275 26.9 3.81 24.555C4.0975 22.1675 4.405 19.865 4.49 19.245L4.5 19.08V17.865C4.5 17.41 4.2 16.865 3.575 16.365C2.69371 15.6625 1.98207 14.7704 1.49299 13.755C1.00391 12.7396 0.749951 11.627 0.75 10.5C0.75 6.9675 1.975 1.71 2.03 1.475C2.09499 1.1971 2.25222 0.949423 2.47605 0.772357C2.69988 0.595291 2.9771 0.499287 3.2625 0.500004C3.9625 0.500004 4.53 1.0675 4.53 1.7675V9.2625C4.52014 9.43133 4.545 9.60038 4.60302 9.75923C4.66105 9.91807 4.75101 10.0633 4.86737 10.1861C4.98372 10.3088 5.12399 10.4064 5.27953 10.4728C5.43506 10.5392 5.60255 10.573 5.77166 10.5721C5.94077 10.5713 6.10791 10.5357 6.26276 10.4678C6.41761 10.3998 6.55689 10.3008 6.672 10.1769C6.78711 10.053 6.8756 9.90687 6.93201 9.74744C6.98842 9.58802 7.01156 9.41872 7 9.25V1.75C7 1.41848 7.1317 1.10054 7.36612 0.86612C7.60054 0.6317 7.91848 0.500004 8.25 0.500004C8.58152 0.500004 8.89946 0.6317 9.13388 0.86612C9.3683 1.10054 9.5 1.41848 9.5 1.75V9.315C9.50696 9.64321 9.64402 9.95521 9.88102 10.1824C10.118 10.4095 10.4355 10.5332 10.7638 10.5263C11.092 10.5193 11.404 10.3822 11.6311 10.1452C11.8583 9.90824 11.982 9.59071 11.975 9.2625V1.7625C11.975 1.065 12.54 0.500004 13.24 0.500004C13.295 0.500004 13.54 0.500004 13.8075 0.635004ZM19.5 11.75C19.5 8.76632 20.6853 5.90484 22.795 3.79505C24.9048 1.68527 27.7663 0.500004 30.75 0.500004C31.0815 0.500004 31.3995 0.6317 31.6339 0.86612C31.8683 1.10054 32 1.41848 32 1.75V16.6825L32.0475 17.125C32.2464 18.9908 32.4372 20.8575 32.62 22.725C32.9275 25.865 33.25 29.385 33.25 30.5C33.25 31.8261 32.7232 33.0979 31.7855 34.0355C30.8479 34.9732 29.5761 35.5 28.25 35.5C26.9239 35.5 25.6521 34.9732 24.7145 34.0355C23.7768 33.0979 23.25 31.8261 23.25 30.5C23.25 29.385 23.5725 25.865 23.88 22.725C24.0375 21.1325 24.195 19.6075 24.3125 18.4775L24.3625 18H22C21.337 18 20.7011 17.7366 20.2322 17.2678C19.7634 16.7989 19.5 16.163 19.5 15.5V11.75Z" fill="white"/>
</svg>
