<svg width="34" height="30" viewBox="0 0 46 30" fill="none" xmlns="http://www.w3.org/2000/svg">
<path d="M23 9.25C21.3424 9.25 19.7527 9.8558 18.5806 10.9341C17.4085 12.0125 16.75 13.475 16.75 15C16.75 16.525 17.4085 17.9875 18.5806 19.0659C19.7527 20.1442 21.3424 20.75 23 20.75C24.6576 20.75 26.2473 20.1442 27.4194 19.0659C28.5915 17.9875 29.25 16.525 29.25 15C29.25 13.475 28.5915 12.0125 27.4194 10.9341C26.2473 9.8558 24.6576 9.25 23 9.25ZM23 24.5833C20.2373 24.5833 17.5878 23.5737 15.6343 21.7764C13.6808 19.9792 12.5833 17.5417 12.5833 15C12.5833 12.4583 13.6808 10.0208 15.6343 8.22356C17.5878 6.42634 20.2373 5.41667 23 5.41667C25.7627 5.41667 28.4122 6.42634 30.3657 8.22356C32.3192 10.0208 33.4166 12.4583 33.4166 15C33.4166 17.5417 32.3192 19.9792 30.3657 21.7764C28.4122 23.5737 25.7627 24.5833 23 24.5833ZM23 0.625C12.5833 0.625 3.68748 6.58583 0.083313 15C3.68748 23.4142 12.5833 29.375 23 29.375C33.4166 29.375 42.3125 23.4142 45.9166 15C42.3125 6.58583 33.4166 0.625 23 0.625Z" fill="white"/>
</svg>
