<svg width="31" height="41" viewBox="0 0 31 41" fill="none" xmlns="http://www.w3.org/2000/svg">
<path d="M30.4776 14.5825L26.2611 1.05062C26.1667 0.747453 25.9709 0.481304 25.7032 0.29194C25.4354 0.102577 25.11 0.000163502 24.7756 0H6.22492C5.8905 0.000163502 5.5651 0.102577 5.29735 0.29194C5.0296 0.481304 4.83387 0.747453 4.7394 1.05062L0.522978 14.5825C-0.138556 16.6565 -0.173178 18.8641 0.423023 20.9558C1.01922 23.0475 2.22249 24.9399 3.89689 26.4194C6.6513 28.8603 10.1902 30.3608 13.9508 30.6823V38.0714H7.75306C7.34212 38.0714 6.94801 38.2257 6.65744 38.5003C6.36686 38.7749 6.20362 39.1474 6.20362 39.5357C6.20362 39.9241 6.36686 40.2965 6.65744 40.5711C6.94801 40.8457 7.34212 41 7.75306 41H23.2475C23.6584 41 24.0525 40.8457 24.3431 40.5711C24.6337 40.2965 24.7969 39.9241 24.7969 39.5357C24.7969 39.1474 24.6337 38.7749 24.3431 38.5003C24.0525 38.2257 23.6584 38.0714 23.2475 38.0714H17.0497V30.6823C20.8103 30.3608 24.3492 28.8603 27.1036 26.4194C28.7777 24.9397 29.9807 23.0472 30.5768 20.9556C31.173 18.864 31.1386 16.6566 30.4776 14.5825ZM7.38313 2.92857H23.6174L27.5084 15.4098C27.5259 15.4647 27.5414 15.5196 27.5569 15.5745C23.4082 16.9802 18.7367 15.2817 16.2014 14.0681C11.3226 11.7344 7.44898 11.4379 4.5922 11.8845L7.38313 2.92857Z" fill="white"/>
</svg>
